<svg xmlns="http://www.w3.org/2000/svg" fill="none" viewBox="0 0 399 73">
  <defs/>
  <path fill="url(#paint0_linear)" fill-rule="evenodd" d="M15.91 7.487a3.744 3.744 0 100-7.487 3.744 3.744 0 000 7.487zm46.795 3.744a3.744 3.744 0 11-7.487 0 3.744 3.744 0 017.487 0zm-5.615 5.615a3.744 3.744 0 01-3.717 3.744 3.744 3.744 0 11-.054 0 3.744 3.744 0 113.77-3.744zm-3.717 26.205a3.744 3.744 0 10-.054 0 3.744 3.744 0 10.054 0zM27.141 54.282a3.744 3.744 0 11-7.487 0 3.744 3.744 0 017.487 0zm29.949.008a3.744 3.744 0 110-.015 3.744 3.744 0 110 .014zm0 7.48a3.744 3.744 0 11-7.487 0 3.744 3.744 0 017.487 0zm-29.949 0a3.744 3.744 0 01-3.716 3.743 3.743 3.743 0 11-.055 0 3.744 3.744 0 113.771-3.744zM60.833 73a3.744 3.744 0 100-7.487 3.744 3.744 0 000 7.487zM27.141 39.308a3.743 3.743 0 01-3.716 3.743 3.744 3.744 0 11-.055 0 3.744 3.744 0 113.771-3.743zm14.974 3.743a3.744 3.744 0 11-7.487 0 3.744 3.744 0 017.487 0zM27.141 24.333a3.743 3.743 0 11-3.77-3.743 3.744 3.744 0 11.053 0 3.744 3.744 0 013.717 3.743zm26.205 11.231a3.744 3.744 0 100-7.487 3.744 3.744 0 000 7.487zM27.141 31.82a3.743 3.743 0 11-7.487 0 3.743 3.743 0 017.487 0zm11.23 7.488a3.744 3.744 0 100-7.487 3.744 3.744 0 000 7.487zm7.488 18.718a3.744 3.744 0 100-7.488 3.744 3.744 0 000 7.488zm-26.205-3.744a3.744 3.744 0 11-7.487 0 3.744 3.744 0 017.487 0zm26.205 11.231a3.744 3.744 0 100-7.487 3.744 3.744 0 000 7.487zm-26.205-3.744a3.744 3.744 0 11-7.487 0 3.744 3.744 0 017.487 0zm-13.103 0a3.744 3.744 0 100-7.487 3.744 3.744 0 000 7.487zm.936-41.18a3.744 3.744 0 11-7.487 0 3.744 3.744 0 017.487 0zm42.116 18.719a3.744 3.744 0 01-3.717 3.743 3.744 3.744 0 11-.054 0 3.744 3.744 0 113.77-3.743zM15.937 43.05a3.743 3.743 0 10-.054 0 3.744 3.744 0 10.054 0zm14.948 3.744a3.744 3.744 0 100-7.487 3.744 3.744 0 000 7.487zm18.718-22.462a3.744 3.744 0 11-3.77-3.743 3.744 3.744 0 11.053 0 3.744 3.744 0 013.717 3.743zM15.91 28.077a3.743 3.743 0 00.027-7.487 3.744 3.744 0 10-.054 0 3.743 3.743 0 00.027 7.487zm33.693 3.743a3.744 3.744 0 11-7.488 0 3.744 3.744 0 017.488 0zM15.91 35.565a3.743 3.743 0 100-7.487 3.743 3.743 0 000 7.487zm18.718 0a3.744 3.744 0 11-7.487 0 3.744 3.744 0 017.487 0z" clip-rule="evenodd"/>
  <path fill="#fff" d="M244.195 30.611l3.536.012a.695.695 0 01.45.12c.164.2.291.426.378.668l4.595 12.51c.048.158.1.237.155.237.055 0 .104-.08.159-.236l4.873-12.635c.073-.188.188-.356.337-.49a.781.781 0 01.493-.135l3.456.012a.533.533 0 01.51.296.71.71 0 010 .647l-7.167 17.812c-.847 2.12-1.441 3.503-1.78 4.149a9.59 9.59 0 01-1.077 1.656 5.347 5.347 0 01-2.305 1.74c-.876.34-1.988.512-3.337.52h-.895a.704.704 0 01-.488-.2.66.66 0 01-.217-.512l.011-2.906a.686.686 0 01.217-.492.674.674 0 01.493-.213h.826c.863 0 1.495-.127 1.906-.377.411-.251.702-.77.888-1.528l.24-.904c.026-.135.034-.274.023-.413a1.659 1.659 0 00-.1-.45l-6.812-17.822a.815.815 0 01.039-.754.656.656 0 01.593-.311zm-134.739-.473l3.536.011c.16-.012.319.03.451.121.162.2.29.427.377.67l4.587 12.522c.049.157.102.236.155.236.052 0 .103-.08.16-.236l4.873-12.636c.072-.187.187-.355.336-.49a.777.777 0 01.492-.134l3.457.012a.532.532 0 01.509.296.704.704 0 010 .646l-7.166 17.813c-.845 2.12-1.439 3.503-1.781 4.149-.3.588-.66 1.145-1.075 1.66a5.354 5.354 0 01-2.306 1.74c-.875.34-1.988.512-3.337.519h-.895a.706.706 0 01-.489-.2.652.652 0 01-.215-.511l.01-2.906a.678.678 0 01.219-.493.662.662 0 01.49-.213h.826c.864 0 1.497-.124 1.907-.377.409-.253.701-.77.89-1.528l.237-.903a1.62 1.62 0 00-.075-.864l-6.806-17.838a.818.818 0 01.039-.755.661.661 0 01.594-.31zm34.135-.22c2.672.01 4.902.986 6.689 2.93 1.788 1.944 2.677 4.356 2.665 7.236-.007 2.882-.918 5.295-2.732 7.24a8.778 8.778 0 01-6.727 2.905 8.143 8.143 0 01-3.318-.681 7.577 7.577 0 01-2.64-1.973l-.028 8.564a.731.731 0 01-.217.53.679.679 0 01-.504.208l-3.536-.012a.755.755 0 01-.509-.219.683.683 0 01-.232-.532l.085-25.142a.69.69 0 01.232-.523.755.755 0 01.513-.213l3.378.011c.185.002.362.08.488.217.143.14.221.333.217.532v1.728a7.71 7.71 0 012.717-2.092 8.15 8.15 0 013.459-.715zm246.005 1.11c2.357.008 4.261.448 5.712 1.32a5.78 5.78 0 012.755 3.78c.085.211.07.45-.041.648-.106.144-.313.215-.628.214h-1.965a1.08 1.08 0 01-.549-.121 1.003 1.003 0 01-.353-.472c-.286-.735-.874-1.3-1.763-1.697-.889-.396-2.041-.596-3.455-.602-1.465 0-2.591.207-3.378.62-.792.416-1.186 1.016-1.188 1.802 0 .707.34 1.258 1.019 1.654.679.396 2.182.767 4.513 1.114 1.542.218 2.687.419 3.434.602.669.158 1.32.385 1.942.675.967.45 1.686 1.028 2.156 1.735.483.764.727 1.655.698 2.558 0 1.912-.818 3.428-2.452 4.548s-3.784 1.676-6.45 1.666c-2.407-.008-4.343-.48-5.806-1.415-1.464-.935-2.403-2.309-2.816-4.12a.623.623 0 01.081-.551.612.612 0 01.509-.189h2.124c.19-.01.379.031.548.119a.793.793 0 01.312.432c.315.87.954 1.583 1.784 1.991.848.434 2.019.655 3.513.662 1.573 0 2.808-.241 3.715-.735s1.358-1.173 1.364-2.039a1.97 1.97 0 00-1.037-1.77c-.691-.422-2.229-.78-4.615-1.078-1.509-.215-2.64-.407-3.374-.58a11.58 11.58 0 01-1.922-.615c-.943-.423-1.642-.988-2.097-1.697a4.567 4.567 0 01-.679-2.556c0-1.886.746-3.343 2.237-4.373 1.491-1.03 3.542-1.54 6.152-1.53zm-59.163-.205c2.882.01 5.255.953 7.121 2.829 1.866 1.875 2.794 4.282 2.784 7.219a1.1 1.1 0 01-.219.726.797.797 0 01-.647.253l-15.44-.053c.1 1.76.728 3.17 1.886 4.228 1.158 1.059 2.628 1.595 4.409 1.609a7.119 7.119 0 003.048-.64 5.42 5.42 0 002.233-1.81c.134-.21.316-.384.532-.508.213-.108.451-.16.69-.154h2.041c.339 0 .565.096.669.277.104.181.075.447-.081.787a9.463 9.463 0 01-3.706 3.856 10.488 10.488 0 01-5.427 1.415c-2.931-.01-5.324-.948-7.18-2.814-1.856-1.866-2.777-4.279-2.763-7.238.009-2.907.966-5.3 2.872-7.18s4.299-2.814 7.178-2.802zm41.812-4.332a.68.68 0 01.491.215.758.758 0 01.213.532l-.015 4.086 3.613.012a.725.725 0 01.53.218.709.709 0 01.213.488v1.693a.664.664 0 01-.217.49.728.728 0 01-.53.215l-3.615-.011-.034 10.214c0 1.047.219 1.801.658 2.263.445.462 1.162.692 2.162.694h.863a.72.72 0 01.528.218c.132.13.209.306.214.49L377.318 50a.662.662 0 01-.216.488.724.724 0 01-.536.219h-1.531c-1.992 0-3.438-.444-4.338-1.33-.9-.886-1.347-2.309-1.339-4.268l.034-10.685h-2.437a.72.72 0 01-.528-.217.688.688 0 01-.213-.492v-1.65a.697.697 0 01.238-.529.735.735 0 01.509-.216h2.437l.015-4.085a.714.714 0 01.217-.53.68.68 0 01.492-.215h2.123zm-86.517 4.175c2.879.011 5.252.954 7.119 2.829 1.867 1.875 2.795 4.28 2.784 7.217.015.26-.062.518-.217.726a.794.794 0 01-.649.253l-15.44-.053c.098 1.76.727 3.17 1.886 4.23 1.159 1.06 2.63 1.596 4.413 1.607a7.138 7.138 0 003.046-.637 5.469 5.469 0 002.233-1.807c.133-.21.315-.386.532-.51.213-.106.449-.16.688-.154h2.042c.34 0 .562.093.668.278.106.184.078.446-.081.784a9.426 9.426 0 01-3.706 3.857 10.481 10.481 0 01-5.428 1.416c-2.933-.01-5.327-.948-7.181-2.814-1.855-1.866-2.776-4.279-2.763-7.24.011-2.905.969-5.299 2.872-7.18 1.904-1.88 4.298-2.814 7.182-2.802zm69.425.255c2.149.007 3.83.615 5.043 1.824 1.214 1.208 1.818 2.86 1.813 4.956l-.044 12.218a.702.702 0 01-.22.528.673.673 0 01-.5.208h-2.124a.681.681 0 01-.49-.217.725.725 0 01-.213-.532l.04-11.825c0-1.205-.378-2.163-1.132-2.872-.754-.709-1.788-1.065-3.1-1.069-1.337 0-2.445.369-3.323 1.107a3.503 3.503 0 00-1.321 2.765l-.041 11.864a.715.715 0 01-.219.53.67.67 0 01-.492.213h-2.074a.69.69 0 01-.493-.219.728.728 0 01-.211-.53l.06-17.876a.732.732 0 01.217-.528.679.679 0 01.493-.215h2.044a.685.685 0 01.49.219c.141.14.218.331.213.53v1.572a5.307 5.307 0 012.263-1.957 7.596 7.596 0 013.321-.694zm-126.67-.717a7.995 7.995 0 013.355.719 7.69 7.69 0 012.684 2.052v-1.65a.719.719 0 01.217-.53.68.68 0 01.492-.214l3.34.012a.738.738 0 01.743.754l-.064 18.15a.723.723 0 01-.217.51.692.692 0 01-.517.227l-3.34-.011a.675.675 0 01-.49-.22.722.722 0 01-.215-.529v-1.73a7.446 7.446 0 01-2.716 2.075 8.266 8.266 0 01-3.419.694 8.897 8.897 0 01-6.748-2.95c-1.829-1.955-2.739-4.361-2.729-7.217.01-2.855.943-5.261 2.797-7.219a8.99 8.99 0 016.827-2.923zm70.793.879h2.201a.667.667 0 01.413.14c.148.135.262.303.334.49l5.527 14.125c.053.189.112.276.178.276.066 0 .124-.093.177-.274l5.863-14.205a.874.874 0 01.294-.39.741.741 0 01.413-.117h2.075a.67.67 0 01.59.298.63.63 0 01.036.649l-7.642 17.808c-.066.164-.167.31-.296.43a.596.596 0 01-.405.163h-2.476a.635.635 0 01-.412-.14.755.755 0 01-.254-.411l-7.246-17.861a.706.706 0 01.042-.687.659.659 0 01.588-.294zm-93.416-.907c2.436.007 4.393.466 5.869 1.375a6.007 6.007 0 012.795 3.99.757.757 0 01-.081.687.792.792 0 01-.668.254l-3.017-.011a1.037 1.037 0 01-.591-.158 1.135 1.135 0 01-.39-.513c-.236-.551-.711-.98-1.432-1.28-.72-.303-1.627-.46-2.727-.463-1.178 0-2.106.17-2.791.522-.684.353-1.024.827-1.026 1.43 0 .55.293.983.879 1.297.589.32 1.918.61 3.985.881 1.569.215 2.74.416 3.514.602.682.154 1.346.38 1.982.673.994.449 1.725 1.04 2.193 1.775.488.805.731 1.735.7 2.676-.008 2.043-.845 3.644-2.512 4.803-1.668 1.16-3.944 1.734-6.829 1.724-2.723-.01-4.837-.482-6.341-1.416-1.503-.935-2.422-2.333-2.755-4.195a.755.755 0 01.1-.628.706.706 0 01.609-.232l3.259.012c.231-.013.462.035.67.137.178.12.315.292.392.492a2.79 2.79 0 001.467 1.51c.694.316 1.656.476 2.887.48 1.281 0 2.29-.193 3.027-.579.732-.39 1.102-.926 1.103-1.607 0-.577-.303-1.027-.916-1.357-.613-.33-1.967-.629-4.064-.898a32.385 32.385 0 01-3.495-.566 14.093 14.093 0 01-2.003-.636 4.916 4.916 0 01-2.153-1.776 4.82 4.82 0 01-.696-2.674c0-2.012.79-3.573 2.37-4.685 1.581-1.111 3.809-1.66 6.686-1.646zm-38.74-.185c2.908.01 5.314.98 7.219 2.912 1.905 1.931 2.852 4.376 2.842 7.336.024.332-.06.662-.238.943a.778.778 0 01-.669.313l-14.261-.047c.152 1.383.671 2.478 1.557 3.285.887.807 2.026 1.21 3.418 1.209a5.489 5.489 0 002.355-.483 4.526 4.526 0 001.741-1.352c.141-.192.323-.352.532-.468.213-.109.45-.162.69-.154l3.415.011c.377 0 .604.087.708.256.103.17.088.429-.04.768a8.544 8.544 0 01-3.61 4.21 10.804 10.804 0 01-5.801 1.57c-2.961-.01-5.387-.96-7.279-2.851-1.893-1.891-2.835-4.317-2.829-7.278.009-2.96.986-5.4 2.932-7.317 1.947-1.918 4.386-2.872 7.318-2.863zm24.162.132a4.837 4.837 0 011.533.24c.472.16.77.356.9.594.106.079.171.201.177.333a.86.86 0 01-.102.453l-1.697 3.057a.601.601 0 01-.336.313.769.769 0 01-.492 0 7.441 7.441 0 00-.783-.16 4.163 4.163 0 00-.434-.04 2.525 2.525 0 00-2.106.975c-.511.653-.768 1.516-.773 2.59l-.036 10.83a.731.731 0 01-.221.51.677.677 0 01-.533.245l-3.537-.012a.68.68 0 01-.492-.218.73.73 0 01-.213-.53l.064-18.15a.716.716 0 01.215-.53.682.682 0 01.494-.215l3.38.013a.708.708 0 01.526.217c.142.14.22.331.217.53v1.22a4.848 4.848 0 011.81-1.684 5.08 5.08 0 012.439-.58zM89.082 23l3.535.011c.2-.004.392.076.53.221a.7.7 0 01.215.53l-.028 8.524a5.47 5.47 0 012.188-1.857 6.978 6.978 0 013.124-.677c2.067.007 3.696.621 4.887 1.842 1.19 1.22 1.779 2.893 1.767 5.017l-.044 12.414a.727.727 0 01-.216.51.697.697 0 01-.527.237l-3.498-.013a.675.675 0 01-.49-.217.73.73 0 01-.213-.53l.041-11.504c0-.995-.314-1.789-.943-2.38-.626-.592-1.452-.888-2.472-.892-1.049 0-1.914.292-2.597.875a2.889 2.889 0 00-1.028 2.295l-.04 11.59a.732.732 0 01-.22.508.679.679 0 01-.53.234l-3.536-.013a.671.671 0 01-.487-.228.72.72 0 01-.213-.53l.085-25.222a.732.732 0 01.219-.53.679.679 0 01.49-.215zm136.342 13.379a5.891 5.891 0 00-.028 7.975 5.244 5.244 0 007.581.045c1.036-1.07 1.558-2.405 1.566-4.002 0-1.595-.51-2.934-1.539-4.01a5.058 5.058 0 00-3.785-1.627 5.034 5.034 0 00-3.795 1.619zm-86.47-.317c-1.041 1.07-1.564 2.404-1.569 4.002-.005 1.598.508 2.935 1.54 4.013a5.249 5.249 0 007.582 0 5.899 5.899 0 00.026-7.976 5.023 5.023 0 00-3.779-1.637h-.004a5.053 5.053 0 00-3.796 1.598zm187.245-.613a5.733 5.733 0 00-2.074 3.772l12.411.043a6.054 6.054 0 00-6.146-5.248l-.006-.008a6.327 6.327 0 00-4.185 1.44zm-44.709-.155a5.733 5.733 0 00-2.074 3.772l12.415.041a6.108 6.108 0 00-2.075-3.798c-1.121-.963-2.481-1.447-4.079-1.454a6.322 6.322 0 00-4.187 1.44zm-114.459-.903c-1.284 0-2.371.356-3.263 1.067a4.778 4.778 0 00-1.697 2.923l9.82.034a4.829 4.829 0 00-1.658-2.934 4.892 4.892 0 00-3.202-1.09z"/>
  <defs>
    <linearGradient id="paint0_linear" x1="47.413" x2="-.22" y1="27.365" y2="72.76" gradientUnits="userSpaceOnUse">
      <stop stop-color="#FF3866"/>
      <stop offset="1" stop-color="#402169"/>
    </linearGradient>
  </defs>
</svg>
