<svg width="1427" height="119" viewBox="0 0 1427 119" fill="none" xmlns="http://www.w3.org/2000/svg">
<path d="M182.42 91.5668C187.7 91.5668 191.98 87.2866 191.98 82.0068C191.98 76.7269 187.7 72.4468 182.42 72.4468C177.14 72.4468 172.86 76.7269 172.86 82.0068C172.86 87.2866 177.14 91.5668 182.42 91.5668Z" fill="#FF3866"/>
<path d="M1026.89 19.12C1032.17 19.12 1036.45 14.8398 1036.45 9.56C1036.45 4.28016 1032.17 0 1026.89 0C1021.61 0 1017.33 4.28016 1017.33 9.56C1017.33 14.8398 1021.61 19.12 1026.89 19.12Z" fill="#FF3866"/>
<path d="M1130.45 32.6133C1134.85 32.6133 1138.42 29.0465 1138.42 24.6466C1138.42 20.2467 1134.85 16.6799 1130.45 16.6799C1126.05 16.6799 1122.49 20.2467 1122.49 24.6466C1122.49 29.0465 1126.05 32.6133 1130.45 32.6133Z" fill="#FF3866"/>
<path d="M1146.39 115.467C1152.55 115.467 1157.54 110.473 1157.54 104.313C1157.54 98.1537 1152.55 93.1602 1146.39 93.1602C1140.23 93.1602 1135.23 98.1537 1135.23 104.313C1135.23 110.473 1140.23 115.467 1146.39 115.467Z" fill="#FF3866"/>
<path d="M558.447 58.1067C564.607 58.1067 569.6 53.1132 569.6 46.9534C569.6 40.7936 564.607 35.8 558.447 35.8C552.287 35.8 547.293 40.7936 547.293 46.9534C547.293 53.1132 552.287 58.1067 558.447 58.1067Z" fill="#FF3866"/>
<path d="M327.413 105.907C337.973 105.907 346.533 97.3464 346.533 86.7867C346.533 76.2271 337.973 67.6667 327.413 67.6667C316.854 67.6667 308.293 76.2271 308.293 86.7867C308.293 97.3464 316.854 105.907 327.413 105.907Z" fill="#FF3866"/>
<path d="M64.5133 48.5468C71.5531 48.5468 77.2599 42.8399 77.2599 35.8001C77.2599 28.7603 71.5531 23.0535 64.5133 23.0535C57.4735 23.0535 51.7666 28.7603 51.7666 35.8001C51.7666 42.8399 57.4735 48.5468 64.5133 48.5468Z" fill="#FF3866"/>
<path d="M1299.35 89.9734C1308.15 89.9734 1315.28 82.8398 1315.28 74.04C1315.28 65.2403 1308.15 58.1067 1299.35 58.1067C1290.55 58.1067 1283.41 65.2403 1283.41 74.04C1283.41 82.8398 1290.55 89.9734 1299.35 89.9734Z" fill="#FF3866"/>
<path d="M1195.78 74.04C1200.18 74.04 1203.75 70.4732 1203.75 66.0734C1203.75 61.6735 1200.18 58.1067 1195.78 58.1067C1191.38 58.1067 1187.81 61.6735 1187.81 66.0734C1187.81 70.4732 1191.38 74.04 1195.78 74.04Z" fill="#FF3866"/>
<path d="M623.773 22.9333C628.173 22.9333 631.74 19.3665 631.74 14.9667C631.74 10.5668 628.173 7 623.773 7C619.373 7 615.807 10.5668 615.807 14.9667C615.807 19.3665 619.373 22.9333 623.773 22.9333Z" fill="#FF3866"/>
<path d="M768.767 46.9534C774.926 46.9534 779.92 41.9599 779.92 35.8001C779.92 29.6402 774.926 24.6467 768.767 24.6467C762.607 24.6467 757.613 29.6402 757.613 35.8001C757.613 41.9599 762.607 46.9534 768.767 46.9534Z" fill="#FF3866"/>
<path d="M443.727 91.5666C452.527 91.5666 459.66 84.433 459.66 75.6333C459.66 66.8335 452.527 59.7 443.727 59.7C434.927 59.7 427.793 66.8335 427.793 75.6333C427.793 84.433 434.927 91.5666 443.727 91.5666Z" fill="#FF3866"/>
<path d="M1410.93 59.7002C1419.73 59.7002 1426.87 52.5666 1426.87 43.7668C1426.87 34.9671 1419.73 27.8335 1410.93 27.8335C1402.13 27.8335 1395 34.9671 1395 43.7668C1395 52.5666 1402.13 59.7002 1410.93 59.7002Z" fill="#FF3866"/>
<path d="M1386.98 88.38C1392.26 88.38 1396.54 84.0999 1396.54 78.82C1396.54 73.5402 1392.26 69.26 1386.98 69.26C1381.7 69.26 1377.42 73.5402 1377.42 78.82C1377.42 84.0999 1381.7 88.38 1386.98 88.38Z" fill="#FF3866"/>
<path d="M504.273 29.3067C510.433 29.3067 515.427 24.3132 515.427 18.1533C515.427 11.9935 510.433 7 504.273 7C498.114 7 493.12 11.9935 493.12 18.1533C493.12 24.3132 498.114 29.3067 504.273 29.3067Z" fill="#FF3866"/>
<path d="M1087.43 54.9199C1097.99 54.9199 1106.55 46.3596 1106.55 35.7999C1106.55 25.2402 1097.99 16.6799 1087.43 16.6799C1076.87 16.6799 1068.31 25.2402 1068.31 35.7999C1068.31 46.3596 1076.87 54.9199 1087.43 54.9199Z" fill="#FF3866"/>
<path d="M990.24 56.5134C997.28 56.5134 1002.99 50.8065 1002.99 43.7667C1002.99 36.7269 997.28 31.02 990.24 31.02C983.2 31.02 977.493 36.7269 977.493 43.7667C977.493 50.8065 983.2 56.5134 990.24 56.5134Z" fill="#FF3866"/>
<path d="M1213.31 34.2068C1222.11 34.2068 1229.24 27.0732 1229.24 18.2734C1229.24 9.47368 1222.11 2.34009 1213.31 2.34009C1204.51 2.34009 1197.37 9.47368 1197.37 18.2734C1197.37 27.0732 1204.51 34.2068 1213.31 34.2068Z" fill="#FF3866"/>
<path d="M808.6 70.8533C819.16 70.8533 827.72 62.293 827.72 51.7333C827.72 41.1736 819.16 32.6133 808.6 32.6133C798.04 32.6133 789.48 41.1736 789.48 51.7333C789.48 62.293 798.04 70.8533 808.6 70.8533Z" fill="#FF3866"/>
<path d="M368.84 21.12C374.12 21.12 378.4 16.8398 378.4 11.56C378.4 6.28016 374.12 2 368.84 2C363.56 2 359.28 6.28016 359.28 11.56C359.28 16.8398 363.56 21.12 368.84 21.12Z" fill="#FF3866"/>
<path d="M364.06 56.5132C371.98 56.5132 378.4 50.093 378.4 42.1732C378.4 34.2535 371.98 27.8333 364.06 27.8333C356.14 27.8333 349.72 34.2535 349.72 42.1732C349.72 50.093 356.14 56.5132 364.06 56.5132Z" fill="#FF3866"/>
<path d="M499.493 113.873C504.773 113.873 509.053 109.593 509.053 104.313C509.053 99.0336 504.773 94.7534 499.493 94.7534C494.214 94.7534 489.933 99.0336 489.933 104.313C489.933 109.593 494.214 113.873 499.493 113.873Z" fill="#FF3866"/>
<path d="M260.493 75.6333C269.293 75.6333 276.427 68.4997 276.427 59.6999C276.427 50.9002 269.293 43.7666 260.493 43.7666C251.694 43.7666 244.56 50.9002 244.56 59.6999C244.56 68.4997 251.694 75.6333 260.493 75.6333Z" fill="#FF3866"/>
<path d="M915.353 43.7668C922.393 43.7668 928.1 38.0599 928.1 31.0201C928.1 23.9803 922.393 18.2734 915.353 18.2734C908.314 18.2734 902.607 23.9803 902.607 31.0201C902.607 38.0599 908.314 43.7668 915.353 43.7668Z" fill="#FF3866"/>
<path d="M910.573 112.28C918.493 112.28 924.913 105.86 924.913 97.9401C924.913 90.0203 918.493 83.6001 910.573 83.6001C902.654 83.6001 896.233 90.0203 896.233 97.9401C896.233 105.86 902.654 112.28 910.573 112.28Z" fill="#FF3866"/>
<path d="M131.433 83.6C141.113 83.6 148.96 75.753 148.96 66.0733C148.96 56.3936 141.113 48.5466 131.433 48.5466C121.754 48.5466 113.907 56.3936 113.907 66.0733C113.907 75.753 121.754 83.6 131.433 83.6Z" fill="#FF3866"/>
<path d="M709.813 61.2933C719.493 61.2933 727.34 53.4464 727.34 43.7667C727.34 34.0869 719.493 26.24 709.813 26.24C700.134 26.24 692.287 34.0869 692.287 43.7667C692.287 53.4464 700.134 61.2933 709.813 61.2933Z" fill="#FF3866"/>
<path d="M1098.59 102.72C1109.15 102.72 1117.71 94.1597 1117.71 83.6C1117.71 73.0403 1109.15 64.48 1098.59 64.48C1088.03 64.48 1079.47 73.0403 1079.47 83.6C1079.47 94.1597 1088.03 102.72 1098.59 102.72Z" fill="#FF3866"/>
<path d="M301.92 58.1066C308.96 58.1066 314.667 52.3997 314.667 45.3599C314.667 38.3202 308.96 32.6133 301.92 32.6133C294.88 32.6133 289.173 38.3202 289.173 45.3599C289.173 52.3997 294.88 58.1066 301.92 58.1066Z" fill="#FF3866"/>
<path d="M660.42 109.093C670.98 109.093 679.54 100.533 679.54 89.9733C679.54 79.4136 670.98 70.8533 660.42 70.8533C649.86 70.8533 641.3 79.4136 641.3 89.9733C641.3 100.533 649.86 109.093 660.42 109.093Z" fill="#FF3866"/>
<path d="M877.113 80.4133C887.673 80.4133 896.233 71.853 896.233 61.2933C896.233 50.7337 887.673 42.1733 877.113 42.1733C866.554 42.1733 857.993 50.7337 857.993 61.2933C857.993 71.853 866.554 80.4133 877.113 80.4133Z" fill="#FF3866"/>
<path d="M644.487 64.48C655.046 64.48 663.607 55.9197 663.607 45.36C663.607 34.8003 655.046 26.24 644.487 26.24C633.927 26.24 625.367 34.8003 625.367 45.36C625.367 55.9197 633.927 64.48 644.487 64.48Z" fill="#FF3866"/>
<path d="M1050.79 104.313C1055.19 104.313 1058.75 100.747 1058.75 96.3468C1058.75 91.9469 1055.19 88.3801 1050.79 88.3801C1046.39 88.3801 1042.82 91.9469 1042.82 96.3468C1042.82 100.747 1046.39 104.313 1050.79 104.313Z" fill="#FF3866"/>
<path d="M119.34 29.68C127.26 29.68 133.68 23.2598 133.68 15.34C133.68 7.42024 127.26 1 119.34 1C111.42 1 105 7.42024 105 15.34C105 23.2598 111.42 29.68 119.34 29.68Z" fill="#FF3866"/>
<path d="M42.2067 86.7867C50.1265 86.7867 56.5467 80.3665 56.5467 72.4467C56.5467 64.5269 50.1265 58.1067 42.2067 58.1067C34.2869 58.1067 27.8667 64.5269 27.8667 72.4467C27.8667 80.3665 34.2869 86.7867 42.2067 86.7867Z" fill="#FF3866"/>
<path d="M198.353 50.1399C204.513 50.1399 209.507 45.1464 209.507 38.9866C209.507 32.8268 204.513 27.8333 198.353 27.8333C192.193 27.8333 187.2 32.8268 187.2 38.9866C187.2 45.1464 192.193 50.1399 198.353 50.1399Z" fill="#FF3866"/>
<path d="M11.1533 34.3067C17.3132 34.3067 22.3067 29.3131 22.3067 23.1533C22.3067 16.9935 17.3132 12 11.1533 12C4.99352 12 0 16.9935 0 23.1533C0 29.3131 4.99352 34.3067 11.1533 34.3067Z" fill="#FF3866"/>
<path d="M740.087 107.5C749.766 107.5 757.613 99.6532 757.613 89.9734C757.613 80.2937 749.766 72.4468 740.087 72.4468C730.407 72.4468 722.56 80.2937 722.56 89.9734C722.56 99.6532 730.407 107.5 740.087 107.5Z" fill="#FF3866"/>
<path d="M550.48 96.3467C554.88 96.3467 558.447 92.7799 558.447 88.38C558.447 83.9801 554.88 80.4133 550.48 80.4133C546.08 80.4133 542.513 83.9801 542.513 88.38C542.513 92.7799 546.08 96.3467 550.48 96.3467Z" fill="#FF3866"/>
<path d="M493.12 58.1067C497.52 58.1067 501.087 54.5399 501.087 50.14C501.087 45.7401 497.52 42.1733 493.12 42.1733C488.72 42.1733 485.153 45.7401 485.153 50.14C485.153 54.5399 488.72 58.1067 493.12 58.1067Z" fill="#FF3866"/>
<path d="M609.434 86.7867C614.713 86.7867 618.994 82.5066 618.994 77.2267C618.994 71.9469 614.713 67.6667 609.434 67.6667C604.154 67.6667 599.874 71.9469 599.874 77.2267C599.874 82.5066 604.154 86.7867 609.434 86.7867Z" fill="#FF3866"/>
<path d="M1041.23 61.2934C1045.63 61.2934 1049.19 57.7266 1049.19 53.3268C1049.19 48.9269 1045.63 45.3601 1041.23 45.3601C1036.83 45.3601 1033.26 48.9269 1033.26 53.3268C1033.26 57.7266 1036.83 61.2934 1041.23 61.2934Z" fill="#FF3866"/>
<path d="M407.08 66.0734C414.12 66.0734 419.827 60.3665 419.827 53.3267C419.827 46.287 414.12 40.5801 407.08 40.5801C400.04 40.5801 394.333 46.287 394.333 53.3267C394.333 60.3665 400.04 66.0734 407.08 66.0734Z" fill="#FF3866"/>
<path d="M999.8 107.5C1009.48 107.5 1017.33 99.6532 1017.33 89.9734C1017.33 80.2937 1009.48 72.4468 999.8 72.4468C990.12 72.4468 982.273 80.2937 982.273 89.9734C982.273 99.6532 990.12 107.5 999.8 107.5Z" fill="#FF3866"/>
<path d="M1256.33 59.7001C1266.01 59.7001 1273.85 51.8531 1273.85 42.1734C1273.85 32.4937 1266.01 24.6467 1256.33 24.6467C1246.65 24.6467 1238.8 32.4937 1238.8 42.1734C1238.8 51.8531 1246.65 59.7001 1256.33 59.7001Z" fill="#FF3866"/>
<path d="M953.593 82.0068C960.633 82.0068 966.34 76.2999 966.34 69.2601C966.34 62.2203 960.633 56.5134 953.593 56.5134C946.554 56.5134 940.847 62.2203 940.847 69.2601C940.847 76.2999 946.554 82.0068 953.593 82.0068Z" fill="#FF3866"/>
<path d="M1339.18 69.26C1345.34 69.26 1350.33 64.2665 1350.33 58.1067C1350.33 51.9469 1345.34 46.9534 1339.18 46.9534C1333.02 46.9534 1328.03 51.9469 1328.03 58.1067C1328.03 64.2665 1333.02 69.26 1339.18 69.26Z" fill="#FF3866"/>
<path d="M66.1068 117.06C70.5067 117.06 74.0735 113.493 74.0735 109.093C74.0735 104.694 70.5067 101.127 66.1068 101.127C61.7069 101.127 58.1401 104.694 58.1401 109.093C58.1401 113.493 61.7069 117.06 66.1068 117.06Z" fill="#FF3866"/>
<path d="M1194.19 118.653C1199.47 118.653 1203.75 114.373 1203.75 109.093C1203.75 103.814 1199.47 99.5334 1194.19 99.5334C1188.91 99.5334 1184.63 103.814 1184.63 109.093C1184.63 114.373 1188.91 118.653 1194.19 118.653Z" fill="#FF3866"/>
<path d="M593.5 40.5801C604.06 40.5801 612.62 32.0198 612.62 21.4601C612.62 10.9004 604.06 2.34009 593.5 2.34009C582.94 2.34009 574.38 10.9004 574.38 21.4601C574.38 32.0198 582.94 40.5801 593.5 40.5801Z" fill="#FF3866"/>
<path d="M372.027 99.5333C377.307 99.5333 381.587 95.2532 381.587 89.9733C381.587 84.6935 377.307 80.4133 372.027 80.4133C366.747 80.4133 362.467 84.6935 362.467 89.9733C362.467 95.2532 366.747 99.5333 372.027 99.5333Z" fill="#FF3866"/>
<path d="M332.193 19.8667C336.593 19.8667 340.16 16.2999 340.16 11.9C340.16 7.50015 336.593 3.93335 332.193 3.93335C327.793 3.93335 324.227 7.50015 324.227 11.9C324.227 16.2999 327.793 19.8667 332.193 19.8667Z" fill="#FF3866"/>
</svg>
