<svg width="1440" height="256" viewBox="0 0 1440 256" fill="none" xmlns="http://www.w3.org/2000/svg">
<g opacity="0.2">
<path d="M0 38L26.72 46.32C53.28 54.48 106.72 71.12 160 86.48C213.28 102 266.72 116.4 320 108.72C373.28 100.88 426.72 71.12 480 70.8C533.28 70.48 586.72 99.92 640 111.28C693.28 122.8 746.72 116.4 800 117.52C853.28 118.48 906.72 127.12 960 125.52C1013.28 123.92 1066.72 112.08 1120 108.72C1173.28 105.2 1226.72 110 1280 105.68C1333.28 101.52 1386.72 88.08 1413.28 81.52L1440 74.8V218.8H1413.28C1386.72 218.8 1333.28 218.8 1280 218.8C1226.72 218.8 1173.28 218.8 1120 218.8C1066.72 218.8 1013.28 218.8 960 218.8C906.72 218.8 853.28 218.8 800 218.8C746.72 218.8 693.28 218.8 640 218.8C586.72 218.8 533.28 218.8 480 218.8C426.72 218.8 373.28 218.8 320 218.8C266.72 218.8 213.28 218.8 160 218.8C106.72 218.8 53.28 218.8 26.72 218.8H0V38Z" fill="#F4C643"/>
</g>
<path d="M0 75L26.72 83.32C53.28 91.48 106.72 108.12 160 123.48C213.28 139 266.72 153.4 320 145.72C373.28 137.88 426.72 108.12 480 107.8C533.28 107.48 586.72 136.92 640 148.28C693.28 159.8 746.72 153.4 800 154.52C853.28 155.48 906.72 164.12 960 162.52C1013.28 160.92 1066.72 149.08 1120 145.72C1173.28 142.2 1226.72 147 1280 142.68C1333.28 138.52 1386.72 125.08 1413.28 118.52L1440 111.8V255.8H1413.28C1386.72 255.8 1333.28 255.8 1280 255.8C1226.72 255.8 1173.28 255.8 1120 255.8C1066.72 255.8 1013.28 255.8 960 255.8C906.72 255.8 853.28 255.8 800 255.8C746.72 255.8 693.28 255.8 640 255.8C586.72 255.8 533.28 255.8 480 255.8C426.72 255.8 373.28 255.8 320 255.8C266.72 255.8 213.28 255.8 160 255.8C106.72 255.8 53.28 255.8 26.72 255.8H0V75Z" fill="#F4C643"/>
<g opacity="0.2">
<path d="M0 0L26.72 8.32002C53.28 16.48 106.72 33.12 160 48.48C213.28 64 266.72 78.4 320 70.72C373.28 62.88 426.72 33.12 480 32.8C533.28 32.48 586.72 61.92 640 73.28C693.28 84.8 746.72 78.4 800 79.52C853.28 80.48 906.72 89.12 960 87.52C1013.28 85.92 1066.72 74.08 1120 70.72C1173.28 67.2 1226.72 72 1280 67.68C1333.28 63.52 1386.72 50.08 1413.28 43.52L1440 36.8V180.8H1413.28C1386.72 180.8 1333.28 180.8 1280 180.8C1226.72 180.8 1173.28 180.8 1120 180.8C1066.72 180.8 1013.28 180.8 960 180.8C906.72 180.8 853.28 180.8 800 180.8C746.72 180.8 693.28 180.8 640 180.8C586.72 180.8 533.28 180.8 480 180.8C426.72 180.8 373.28 180.8 320 180.8C266.72 180.8 213.28 180.8 160 180.8C106.72 180.8 53.28 180.8 26.72 180.8H0V0Z" fill="#F4C643"/>
</g>
</svg>
